HIERARCHY
ROOT locator2
{
  OFFSET 53.6172 30.1899 0.816905
  CHANNELS 6 Xposition Yposition Zposition Zrotation Xrotation Yrotation
  JOINT koshi
  {
    OFFSET 0 0 0
    CHANNELS 6 Xposition Yposition Zposition Zrotation Xrotation Yrotation
    JOINT sippo01
    {
      OFFSET 0 42.8363 -0.548134
      CHANNELS 6 Xposition Yposition Zposition Zrotation Xrotation Yrotation
      JOINT sippo02
      {
        OFFSET 0 44.0461 -3.28882
        CHANNELS 6 Xposition Yposition Zposition Zrotation Xrotation Yrotation
        JOINT sippo03
        {
          OFFSET 0 34.1929 -2.46662
          CHANNELS 6 Xposition Yposition Zposition Zrotation Xrotation Yrotation
          JOINT sippo04
          {
            OFFSET 0 30.0959 -1.75404
            CHANNELS 6 Xposition Yposition Zposition Zrotation Xrotation Yrotation
            JOINT sippo05
            {
              OFFSET 0 28.3637 -1.75404
              CHANNELS 6 Xposition Yposition Zposition Zrotation Xrotation Yrotation
              JOINT sippo06
              {
                OFFSET 0 31.6071 -3.2043
                CHANNELS 6 Xposition Yposition Zposition Zrotation Xrotation Yrotation
                End Site
                {
                  OFFSET 0 0 0
                }
              }
            }
          }
        }
      }
    }
    JOINT R_momo
    {
      OFFSET -27.891 13.5892 3.92723
      CHANNELS 6 Xposition Yposition Zposition Zrotation Xrotation Yrotation
      JOINT R_hiza
      {
        OFFSET 0 28.01 1.8232
        CHANNELS 6 Xposition Yposition Zposition Zrotation Xrotation Yrotation
        JOINT R_ashi
        {
          OFFSET 0 24.3992 -2.49174
          CHANNELS 6 Xposition Yposition Zposition Zrotation Xrotation Yrotation
          End Site
          {
            OFFSET 0 0 0
          }
        }
      }
    }
    JOINT L_momo
    {
      OFFSET 27.891 13.5892 3.92714
      CHANNELS 6 Xposition Yposition Zposition Zrotation Xrotation Yrotation
      JOINT L_hiza
      {
        OFFSET 0 28.0098 1.82319
        CHANNELS 6 Xposition Yposition Zposition Zrotation Xrotation Yrotation
        JOINT L_ashi
        {
          OFFSET 0 24.3992 -2.49171
          CHANNELS 6 Xposition Yposition Zposition Zrotation Xrotation Yrotation
          End Site
          {
            OFFSET 0 0 0
          }
        }
      }
    }
  }
  JOINT hara
  {
    OFFSET 0 2.15392 0
    CHANNELS 6 Xposition Yposition Zposition Zrotation Xrotation Yrotation
    JOINT mune
    {
      OFFSET 0 62.0609 0.472494
      CHANNELS 6 Xposition Yposition Zposition Zrotation Xrotation Yrotation
      JOINT R_kata
      {
        OFFSET 22.6695 9.65301 -5.3622
        CHANNELS 6 Xposition Yposition Zposition Zrotation Xrotation Yrotation
        JOINT R_hiji
        {
          OFFSET 0 25.813 1.69098
          CHANNELS 6 Xposition Yposition Zposition Zrotation Xrotation Yrotation
          JOINT R_te
          {
            OFFSET 0 28.5636 -0.966307
            CHANNELS 6 Xposition Yposition Zposition Zrotation Xrotation Yrotation
            End Site
            {
              OFFSET 0 0 0
            }
          }
        }
      }
      JOINT L_kata
      {
        OFFSET -22.6695 9.65298 -5.3622
        CHANNELS 6 Xposition Yposition Zposition Zrotation Xrotation Yrotation
        JOINT L_hiji
        {
          OFFSET 0 25.813 1.69102
          CHANNELS 6 Xposition Yposition Zposition Zrotation Xrotation Yrotation
          JOINT L_te
          {
            OFFSET 0 28.5636 -0.966295
            CHANNELS 6 Xposition Yposition Zposition Zrotation Xrotation Yrotation
            End Site
            {
              OFFSET 0 0 0
            }
          }
        }
      }
      JOINT kubi
      {
        OFFSET 0 23.1438 -0.944988
        CHANNELS 6 Xposition Yposition Zposition Zrotation Xrotation Yrotation
        JOINT atama
        {
          OFFSET 0 20.8625 4.12737
          CHANNELS 6 Xposition Yposition Zposition Zrotation Xrotation Yrotation
          JOINT ago
          {
            OFFSET 0 7.552 -7.58201
            CHANNELS 6 Xposition Yposition Zposition Zrotation Xrotation Yrotation
            End Site
            {
              OFFSET 0 0 0
            }
          }
        }
      }
    }
  }
}
MOTION
Frames:	4
Frame Time:	0.0333333
112.295 30.2148 -4.09374 -90 -3.50835e-015 -90 0 0 0 -173.724 -1.36804 -0.807425 6.83009e-013 42.8363 -0.548134 -1.29454 -8.96021 7.12231 1.26913e-006 44.0461 -3.28883 -6.0617 24.2393 1.25543 -4.78628e-007 34.1929 -2.46663 -7.13344 9.87418 -3.60426 7.04502e-006 30.0959 -1.75404 -7.35327 13.6696 -7.23711 -7.39786e-007 28.3637 -1.75404 -2.7646 -0.836585 5.9605 6.70176e-006 31.6071 -3.2043 -0.612972 2.53219 -15.7609 -27.891 13.5892 3.92723 98.2469 -27.8877 -65.1175 3.69881e-007 28.01 1.8232 13.8549 -83.4429 -3.62797 3.29311e-006 24.3992 -2.49174 -150.069 48.0559 -162.464 27.891 13.5892 3.92714 -123.474 -21.5489 16.3662 -4.04237e-006 28.0098 1.82319 -176.368 -73.2207 -164.657 -2.61031e-007 24.3992 -2.49171 175.852 51.7007 179.158 6.55651e-007 2.15392 0 -2.21857 -0.707216 -2.68283 -2.38419e-007 62.0609 0.472494 -9.99493e-006 -7.19871e-008 1.00413e-005 22.6695 9.65301 -5.3622 -122.188 8.77404 8.75013 2.01712e-006 25.813 1.69098 179.998 -74.5032 -179.888 3.74674e-006 28.5636 -0.966308 77.338 8.02389 -93.2406 -22.6695 9.65298 -5.3622 119.627 18.8125 -7.18583 -6.23489e-006 25.813 1.69102 178.082 -81.9834 169.148 2.95813e-006 28.5636 -0.966294 -78.3925 34.8732 80.217 -4.76838e-007 23.1438 -0.944988 43.1945 -10.4908 1.83175 2.49641e-006 20.8625 4.12737 43.1816 7.37888 9.13306 9.25981e-007 7.552 -7.58201 -7.0114e-006 7.80093 1.11628e-005 
112.675 29.8528 -3.72215 -90 -3.50835e-015 -90 0 0 0 -173.491 -1.0113 -0.688213 6.41265e-013 42.8363 -0.548134 -0.760135 -9.80651 6.64287 1.13596e-006 44.0461 -3.28883 -4.33146 23.8814 0.084232 -1.04072e-006 34.1929 -2.46663 -5.34303 8.37861 -4.03189 6.30083e-006 30.0959 -1.75404 -5.98422 13.0989 -6.73439 -1.81437e-006 28.3637 -1.75404 -1.31855 0.740666 5.90728 5.25352e-006 31.6071 -3.2043 0.0673315 4.87234 -14.4958 -27.891 13.5892 3.92723 97.4009 -28.4675 -65.0007 3.83828e-007 28.01 1.8232 14.6043 -83.7549 -3.21985 3.14395e-006 24.3992 -2.49174 -150.452 47.0001 -162.077 27.891 13.5892 3.92714 -123.174 -20.4012 16.7618 -4.02986e-006 28.0098 1.82319 -175.415 -73.3792 -162.68 -3.45101e-007 24.3992 -2.49171 175.14 52.1252 179.264 6.55651e-007 2.15392 -3.55271e-015 -1.78205 -0.041652 -2.57519 -2.38419e-007 62.0609 0.472494 2.28187e-008 -7.2016e-008 2.35955e-008 22.6695 9.65301 -5.3622 -123.024 8.2833 7.66472 2.05465e-006 25.813 1.69098 179.996 -76.4768 179.867 3.91546e-006 28.5636 -0.966308 77.4593 7.18803 -92.9505 -22.6695 9.65298 -5.3622 119.072 16.8045 -6.57386 -6.22891e-006 25.813 1.69102 177.538 -83.8151 168.7 2.92856e-006 28.5636 -0.966294 -79.5687 34.9241 80.4024 -4.76837e-007 23.1438 -0.944988 43.8816 -12.4747 2.69073 2.49377e-006 20.8625 4.12737 43.2279 3.45385 7.55936 7.89023e-007 7.552 -7.58201 -1.65059e-007 7.9466 2.02244e-006 
112.782 29.8126 -3.58387 -90 -3.50835e-015 -90 0 0 0 -173.264 -0.664173 -0.575001 6.46594e-013 42.8363 -0.548134 -0.234132 -10.6349 6.18866 1.00517e-006 44.0461 -3.28883 -3.32032 23.4971 -0.768972 -1.444e-006 34.1929 -2.46663 -4.16857 7.63059 -4.23784 5.7751e-006 30.0959 -1.75404 -4.64774 12.5295 -6.21342 -2.7061e-006 28.3637 -1.75404 -0.267783 1.57531 5.78943 4.01405e-006 31.6071 -3.2043 0.735488 5.06691 -13.7137 -27.891 13.5892 3.92723 97.1702 -28.8733 -64.8898 4.06567e-007 28.01 1.8232 14.4229 -83.6589 -3.7389 3.11057e-006 24.3992 -2.49174 -150.802 45.9636 -161.718 27.891 13.5892 3.92714 -122.652 -19.6631 16.7632 -4.00016e-006 28.0098 1.82319 -175.236 -73.5488 -162.162 -3.96234e-007 24.3992 -2.49171 175.208 52.5156 178.765 6.55651e-007 2.15392 0 -1.61012 1.09218 -2.3581 -2.38419e-007 62.0609 0.472494 2.28665e-008 -7.2016e-008 2.35477e-008 22.6695 9.65301 -5.3622 -124.192 6.51634 6.91339 2.11046e-006 25.813 1.69098 179.994 -78.4114 179.578 3.992e-006 28.5636 -0.966308 77.3882 5.9133 -92.8659 -22.6695 9.65298 -5.3622 118.219 14.8026 -3.59289 -6.18344e-006 25.813 1.69102 176.563 -85.6102 167.82 2.70312e-006 28.5636 -0.966294 -80.527 34.8743 81.6845 -4.76837e-007 23.1438 -0.944988 42.0856 -12.1096 0.529841 2.48913e-006 20.8625 4.12737 42.543 -0.548019 5.4991 8.56723e-007 7.552 -7.58201 -1.95262e-007 7.70829 2.30994e-006 
112.889 29.772 -3.44422 -90 -3.50835e-015 -90 0 0 0 -173.033 -0.324092 -0.461415 5.7554e-013 42.8363 -0.548134 0.299814 -11.4702 5.93322 8.69118e-007 44.0461 -3.28883 -2.29125 22.2831 -1.65128 -1.85388e-006 34.1929 -2.46663 -2.98745 6.86993 -4.08991 5.27868e-006 30.0959 -1.75407 -3.30437 11.9454 -5.65884 -3.57894e-006 28.3637 -1.75404 0.792344 2.41714 5.63926 2.76053e-006 31.6071 -3.2043 1.22043 5.26301 -12.9103 -27.891 13.5892 3.92723 97.0215 -29.6228 -64.7337 4.58404e-007 28.01 1.8232 14.2458 -83.562 -3.55276 3.0551e-006 24.3992 -2.49174 -150.671 45.7345 -162.022 27.891 13.5892 3.92714 -122.546 -19.1352 16.6147 -3.98886e-006 28.0098 1.82319 -175.051 -73.7208 -161.632 -4.35189e-007 24.3992 -2.49171 175.278 52.9104 178.257 6.55651e-007 2.15392 0 -1.43857 3.32673 -2.09199 -2.38419e-007 62.0609 0.472494 2.28665e-008 -7.2016e-008 2.35477e-008 22.6695 9.65301 -5.3622 -125.487 2.09688 5.58015 2.17007e-006 25.813 1.69098 179.987 -83.7413 179.282 4.15089e-006 28.5636 -0.966308 76.7953 4.89728 -94.0872 -22.6695 9.65298 -5.3622 118.154 9.30117 -1.34641 -6.22262e-006 25.813 1.69102 17.7735 -89.1459 9.11889 2.52994e-006 28.5636 -0.966294 -81.3537 34.772 82.7449 -4.76837e-007 23.1438 -0.944988 41.1103 -11.1761 -2.48223 2.48381e-006 20.8625 4.12737 41.4699 -3.85983 4.11136 9.32259e-007 7.552 -7.58201 -1.47823e-007 7.45496 2.02212e-006 
